<svg width="294" height="125" viewBox="0 0 294 125" fill="none" xmlns="http://www.w3.org/2000/svg">
<g filter="url(#filter0_d_430_3)">
<path d="M18.1305 94.6131L25.3941 63.9306H29.4517L30.3784 69.0402L22.6389 100.399H18.2808L18.1305 94.6131ZM14.3985 63.9306L20.4098 94.6131L19.9088 100.399H15.0497L6.95954 63.9306H14.3985ZM36.7654 94.4879L42.7016 63.9306H50.1405L42.0754 100.399H37.2163L36.7654 94.4879ZM31.731 63.9306L39.0447 94.7383L38.8443 100.399H34.4861L26.6965 69.0151L27.6984 63.9306H31.731ZM79.1749 94.538V100.399H59.7635V94.538H79.1749ZM62.2181 63.9306V100.399H54.704V63.9306H62.2181ZM76.6452 78.7834V84.4941H59.7635V78.7834H76.6452ZM79.1499 63.9306V69.8166H59.7635V63.9306H79.1499ZM98.8668 70.1673L88.9483 100.399H80.9583L94.5087 63.9306H99.5932L98.8668 70.1673ZM107.107 100.399L97.1637 70.1673L96.3622 63.9306H101.497L115.122 100.399H107.107ZM106.656 86.8235V92.7095H87.3953V86.8235H106.656ZM132.184 63.9306V100.399H124.695V63.9306H132.184ZM143.405 63.9306V69.8166H113.65V63.9306H143.405ZM172.49 78.7834V84.6444H153.454V78.7834H172.49ZM155.683 63.9306V100.399H148.169V63.9306H155.683ZM177.85 63.9306V100.399H170.361V63.9306H177.85ZM209.339 94.538V100.399H189.928V94.538H209.339ZM192.382 63.9306V100.399H184.868V63.9306H192.382ZM206.809 78.7834V84.4941H189.928V78.7834H206.809ZM209.314 63.9306V69.8166H189.928V63.9306H209.314ZM214.203 63.9306H227.804C230.592 63.9306 232.988 64.348 234.992 65.1829C237.012 66.0178 238.565 67.2535 239.651 68.8899C240.736 70.5263 241.279 72.5384 241.279 74.9262C241.279 76.8799 240.945 78.558 240.277 79.9606C239.626 81.3466 238.699 82.5071 237.497 83.4422C236.311 84.3606 234.917 85.0953 233.314 85.6463L230.934 86.8986H219.112L219.062 81.0377H227.854C229.173 81.0377 230.267 80.8039 231.135 80.3363C232.003 79.8688 232.654 79.2176 233.088 78.3827C233.539 77.5478 233.765 76.5793 233.765 75.4772C233.765 74.3084 233.548 73.2982 233.114 72.4466C232.679 71.595 232.02 70.9437 231.135 70.4929C230.25 70.042 229.139 69.8166 227.804 69.8166H221.717V100.399H214.203V63.9306ZM234.591 100.399L226.276 84.1435L234.216 84.0934L242.631 100.048V100.399H234.591ZM259.393 89.2531H253.006C253.023 87.7502 253.139 86.4562 253.356 85.3708C253.59 84.2687 253.983 83.2752 254.534 82.3902C255.101 81.5052 255.853 80.6286 256.788 79.7603C257.573 79.0589 258.257 78.391 258.842 77.7565C259.426 77.122 259.885 76.4708 260.219 75.8028C260.553 75.1182 260.72 74.3585 260.72 73.5236C260.72 72.5551 260.57 71.7536 260.269 71.1191C259.986 70.4678 259.551 69.9753 258.967 69.6413C258.399 69.3073 257.681 69.1404 256.813 69.1404C256.095 69.1404 255.427 69.299 254.809 69.6162C254.191 69.9168 253.682 70.3844 253.281 71.0189C252.897 71.6534 252.697 72.4883 252.68 73.5236H245.417C245.467 71.236 245.993 69.3491 246.995 67.863C248.013 66.3601 249.374 65.2497 251.077 64.5317C252.78 63.797 254.692 63.4296 256.813 63.4296C259.151 63.4296 261.154 63.8137 262.824 64.5818C264.494 65.3332 265.771 66.4436 266.656 67.9131C267.541 69.3658 267.984 71.1358 267.984 73.223C267.984 74.6757 267.7 75.9698 267.132 77.1053C266.565 78.2241 265.822 79.2677 264.903 80.2362C263.985 81.2046 262.975 82.2065 261.872 83.2418C260.921 84.0934 260.269 84.9867 259.919 85.9218C259.585 86.8569 259.409 87.9673 259.393 89.2531ZM252.254 96.9926C252.254 95.9239 252.622 95.0389 253.356 94.3376C254.091 93.6196 255.076 93.2606 256.312 93.2606C257.531 93.2606 258.508 93.6196 259.243 94.3376C259.994 95.0389 260.37 95.9239 260.37 96.9926C260.37 98.0278 259.994 98.9045 259.243 99.6225C258.508 100.341 257.531 100.7 256.312 100.7C255.076 100.7 254.091 100.341 253.356 99.6225C252.622 98.9045 252.254 98.0278 252.254 96.9926ZM281.264 63.9306L280.437 89.2531H274.426L273.574 63.9306H281.264ZM273.374 97.0928C273.374 96.0241 273.741 95.1391 274.476 94.4378C275.227 93.7198 276.213 93.3608 277.432 93.3608C278.667 93.3608 279.652 93.7198 280.387 94.4378C281.122 95.1391 281.489 96.0241 281.489 97.0928C281.489 98.128 281.122 99.0047 280.387 99.7227C279.652 100.441 278.667 100.8 277.432 100.8C276.213 100.8 275.227 100.441 274.476 99.7227C273.741 99.0047 273.374 98.128 273.374 97.0928Z" fill="#72EFDD"/>
<path d="M31.4204 17.5539L36.9826 38.4121L41.8495 17.5539H50.8881L42.0813 50H33.2745L27.7123 29.8371L22.1501 50H13.3433L4.53648 17.5539H13.575L18.442 38.4121L24.0041 17.5539H31.4204ZM81.9364 50H73.5931V36.7898H62.0052V50H53.6619V17.5539H62.0052V30.3006H73.5931V17.5539H81.9364V50ZM93.7488 50H84.7102L96.9934 17.5539H106.264L118.547 50H109.508L107.422 44.2061H95.8346L93.7488 50ZM97.9204 38.1803H105.337L101.629 27.2877L97.9204 38.1803ZM133.798 50H125.454V24.0431H115.721V17.5539H143.531V24.0431H133.798V50ZM149.751 50H140.712L152.995 17.5539H162.266L174.549 50H165.51L163.425 44.2061H151.837L149.751 50ZM153.923 38.1803H161.339L157.631 27.2877L153.923 38.1803Z" fill="white"/>
</g>
<path d="M263.353 24.2252C263.323 24.2252 263.297 24.2338 263.267 24.2338C263.814 22.9592 264.121 21.5555 264.121 20.0785C264.121 14.2913 259.466 9.59787 253.725 9.59787C251.696 9.59787 249.808 10.1921 248.207 11.2083C246.041 5.90336 240.873 2.1658 234.829 2.1658C226.842 2.1658 220.367 8.69362 220.367 16.7457C220.367 17.3529 220.414 17.9514 220.486 18.5413C220.443 18.5413 220.405 18.537 220.367 18.537C215.01 18.537 210.667 22.9162 210.667 28.3158C210.667 33.7155 215.01 38.0946 220.367 38.0946H263.353C267.15 38.0946 270.229 34.99 270.229 31.1621C270.234 27.3298 267.154 24.2252 263.353 24.2252Z" fill="#B9D7FF"/>
<path d="M246.118 33.3451C246.084 33.3451 246.05 33.3538 246.015 33.3538C246.673 31.8165 247.045 30.1243 247.045 28.3459C247.045 21.366 241.432 15.708 234.509 15.708C232.061 15.708 229.785 16.4271 227.858 17.6457C225.249 11.2513 219.013 6.74731 211.73 6.74731C202.098 6.74731 194.291 14.6186 194.291 24.3285C194.291 25.0605 194.35 25.7796 194.436 26.4901C194.389 26.4901 194.337 26.4815 194.291 26.4815C187.832 26.4901 182.596 31.7692 182.596 38.2798C182.596 44.7904 187.832 50.0694 194.291 50.0694H246.122C250.701 50.0694 254.417 46.3276 254.417 41.7116C254.413 37.0913 250.701 33.3451 246.118 33.3451Z" fill="white"/>
<defs>
<filter id="filter0_d_430_3" x="0.536484" y="17.5539" width="284.953" height="91.2458" filterUnits="userSpaceOnUse" color-interpolation-filters="sRGB">
<feFlood flood-opacity="0" result="BackgroundImageFix"/>
<feColorMatrix in="SourceAlpha" type="matrix" values="0 0 0 0 0 0 0 0 0 0 0 0 0 0 0 0 0 0 127 0" result="hardAlpha"/>
<feOffset dy="4"/>
<feGaussianBlur stdDeviation="2"/>
<feColorMatrix type="matrix" values="0 0 0 0 0 0 0 0 0 0 0 0 0 0 0 0 0 0 0.25 0"/>
<feBlend mode="normal" in2="BackgroundImageFix" result="effect1_dropShadow_430_3"/>
<feBlend mode="normal" in="SourceGraphic" in2="effect1_dropShadow_430_3" result="shape"/>
</filter>
</defs>
</svg>
