<svg width="89" height="49" viewBox="0 0 89 49" fill="none" xmlns="http://www.w3.org/2000/svg">
<path d="M81.3526 22.2252C81.3227 22.2252 81.297 22.2338 81.2671 22.2338C81.8138 20.9592 82.1214 19.5555 82.1214 18.0785C82.1214 12.2913 77.4657 7.59787 71.7251 7.59787C69.6963 7.59787 67.8084 8.19209 66.2067 9.20829C64.0411 3.90336 58.8729 0.165802 52.8291 0.165802C44.8418 0.165802 38.3666 6.69362 38.3666 14.7457C38.3666 15.3529 38.4136 15.9514 38.4862 16.5413C38.4435 16.5413 38.405 16.537 38.3666 16.537C33.0104 16.537 28.6665 20.9162 28.6665 26.3158C28.6665 31.7155 33.0104 36.0946 38.3666 36.0946H81.3526C85.1497 36.0946 88.2293 32.99 88.2293 29.1621C88.2336 25.3298 85.154 22.2252 81.3526 22.2252Z" fill="#B9D7FF"/>
<path d="M64.118 31.3451C64.0838 31.3451 64.0497 31.3538 64.0155 31.3538C64.6733 29.8165 65.0449 28.1243 65.0449 26.3459C65.0449 19.366 59.4324 13.708 52.5087 13.708C50.0613 13.708 47.7847 14.4271 45.8584 15.6457C43.2486 9.25133 37.0126 4.74731 29.7301 4.74731C20.0984 4.74731 12.2905 12.6186 12.2905 22.3285C12.2905 23.0605 12.3503 23.7796 12.4357 24.4901C12.3888 24.4901 12.3375 24.4815 12.2905 24.4815C5.83237 24.4901 0.595798 29.7692 0.595798 36.2798C0.595798 42.7904 5.83237 48.0694 12.2905 48.0694H64.1223C68.7011 48.0694 72.4171 44.3276 72.4171 39.7116C72.4128 35.0913 68.7011 31.3451 64.118 31.3451Z" fill="white"/>
</svg>
